<svg width="145" height="152" viewBox="0 0 145 152" fill="none" xmlns="http://www.w3.org/2000/svg">
<path d="M60.4403 0.0661997C55.8165 0.212215 50.0976 0.650259 46.6419 1.16131C22.1114 4.69001 10.1625 13.7673 3.64049 33.82C2.30202 37.9327 1.25558 42.2888 0.817532 45.5498C0.160465 50.49 -0.107229 61.7332 0.0387858 80.5934C0.209137 102.69 0.452495 106.219 2.20467 113.203C7.09617 132.794 17.0009 143.477 35.1554 148.734C41.2637 150.51 51.1927 151.265 70.5397 151.459C92.5636 151.678 99.8156 151.07 109.842 148.223C118.36 145.813 124.322 142.528 129.457 137.418C132.766 134.108 134.762 131.236 137.074 126.466C139.507 121.405 141.917 113.739 142.914 107.85C144.861 96.436 145.348 68.1822 143.888 51.5608C143.085 42.0455 140.895 33.5036 137.439 26.2272C135.005 21.0923 132.474 17.5393 128.848 14.108C122.278 7.90233 111.643 3.49755 99.2559 1.89139C89.4486 0.601588 71.2941 -0.250166 60.4403 0.0661997ZM86.3579 8.94877C99.4749 9.43549 105.437 10.3359 110.961 12.6965C113.322 13.7186 117.946 16.4199 120.063 18.0017C121.986 19.4375 125.174 22.7715 126.39 24.621C128.8 28.2958 130.965 33.7956 132.693 40.6827C134.446 47.6427 134.762 51.6825 134.932 69.6423C135.346 107.728 132.937 120.675 123.592 130.677C116.096 138.683 106.946 142.09 88.6698 143.623C82.3669 144.159 63.75 144.402 57.958 144.013C34.4983 142.431 21.9167 136.395 15.5894 123.668C10.5762 113.568 9.70011 106.56 9.70011 76.4563C9.72444 45.6959 10.7222 37.2027 15.5407 27.809C18.7774 21.4817 24.4719 16.6146 32.7218 13.1589C39.5602 10.3116 45.4008 9.07045 53.967 8.68108C58.9801 8.43772 77.1103 8.58374 86.3579 8.94877Z" fill="#E9E8E4"/>
<path d="M83.0254 36.1845C78.426 40.711 74.7026 43.9233 73.1208 44.7021L72.123 45.1888L71.7093 44.7021C71.1009 43.9477 70.7845 42.0738 70.5655 37.4743C70.4438 35.1868 70.2248 33.0939 70.0788 32.8262C69.8354 32.3638 69.7624 32.3638 67.9372 32.7045C64.1165 33.4103 57.4728 35.9412 53.8711 38.0584C50.2207 40.1999 47.1301 43.3636 43.9908 48.0604C41.0218 52.5382 39.1479 56.943 38.6856 60.4717C38.2962 63.2946 37.9312 74.7081 37.9312 83.8584V91.9866L43.6014 97.7298C46.7407 100.893 49.4907 103.838 49.7097 104.276C50.0991 105.055 50.0991 105.055 49.515 105.298C48.4686 105.688 46.0106 106.028 42.3359 106.272C40.4134 106.393 38.7829 106.564 38.7099 106.612C38.6126 106.734 37.9555 116.614 37.9312 118.367V119.17H71.1495H104.368V112.867V106.564L96.4101 99.0196C80.5432 84.0288 77.0875 79.9647 78.0853 77.5311C78.426 76.7523 79.4237 76.0953 80.2755 76.0953C81.5896 76.0953 83.7555 77.7014 88.3793 82.1062C92.2487 85.8053 95.3637 88.5552 96.7752 89.5287C98.138 90.4777 98.6734 90.3317 100.523 88.5552C103.054 86.1703 105.585 82.0576 105.585 80.3784C105.585 78.9182 101.156 69.5733 96.0938 60.3987C92.8328 54.4607 90.1072 49.1069 89.2067 46.868C87.8196 43.4366 87.5762 41.9035 87.5762 36.6956C87.5762 34.1403 87.5032 32.0474 87.4059 32.0474C87.2842 32.0718 85.313 33.9213 83.0254 36.1845Z" fill="#E9E8E4"/>
</svg>
