<svg width="312" height="312" viewBox="0 0 312 312" fill="none" xmlns="http://www.w3.org/2000/svg">
<g clip-path="url(#clip0_3898_8)">
<path d="M0 110.933C0 72.1032 -5.16574e-07 52.6877 7.5569 37.8569C14.2041 24.8108 24.8108 14.2041 37.8569 7.5569C52.6877 -5.16574e-07 72.1032 0 110.933 0H201.067C239.897 0 259.312 -5.16574e-07 274.143 7.5569C287.189 14.2041 297.796 24.8108 304.443 37.8569C312 52.6877 312 72.1032 312 110.933V201.067C312 239.897 312 259.312 304.443 274.143C297.796 287.189 287.189 297.796 274.143 304.443C259.312 312 239.897 312 201.067 312H110.933C72.1032 312 52.6877 312 37.8569 304.443C24.8108 297.796 14.2041 287.189 7.5569 274.143C-5.16574e-07 259.312 0 239.897 0 201.067V110.933Z" fill="#020204"/>
<path d="M182.524 57.8384C171.141 69.0414 161.925 76.9919 158.01 78.9193L155.541 80.1239L154.517 78.9193C153.011 77.0522 152.228 72.4144 151.686 61.0307C151.385 55.3689 150.843 50.1891 150.481 49.5265C149.879 48.3821 149.698 48.3821 145.181 49.2254C135.725 50.9721 119.282 57.2361 110.367 62.4762C101.333 67.7766 93.6834 75.6066 85.9136 87.2312C78.5654 98.3138 73.9276 109.216 72.7832 117.949C71.8195 124.936 70.916 153.184 70.916 175.831V195.948L84.9499 210.163C92.7197 217.993 99.5258 225.281 100.068 226.365C101.032 228.293 101.032 228.293 99.586 228.895C96.9961 229.859 90.9128 230.702 81.8179 231.304C77.0596 231.605 73.0241 232.027 72.8434 232.147C72.6025 232.449 70.9762 256.902 70.916 261.239V263.227H235.347V232.027L215.651 213.355C176.381 176.253 167.828 166.194 170.297 160.171C171.141 158.244 173.61 156.618 175.718 156.618C178.971 156.618 184.331 160.593 195.775 171.495C205.352 180.65 213.062 187.456 216.555 189.865C219.928 192.214 221.253 191.853 225.831 187.456C232.095 181.553 238.359 171.374 238.359 167.218C238.359 163.604 227.397 140.476 214.869 117.768C206.798 103.072 200.052 89.8212 197.823 84.2799C194.39 75.7873 193.788 71.9927 193.788 59.1033C193.788 52.779 193.607 47.5991 193.366 47.5991C193.065 47.6594 188.186 52.2369 182.524 57.8384Z" fill="url(#paint0_linear_3898_8)"/>
</g>
<defs>
<linearGradient id="paint0_linear_3898_8" x1="-7.30215" y1="-0.472056" x2="694.914" y2="712.836" gradientUnits="userSpaceOnUse">
<stop stop-color="white"/>
<stop offset="1" stop-color="white" stop-opacity="0"/>
</linearGradient>
<clipPath id="clip0_3898_8">
<rect width="312" height="312" fill="white"/>
</clipPath>
</defs>
</svg>
